<svg id="Layer_1" data-name="Layer 1" xmlns="http://www.w3.org/2000/svg" viewBox="0 0 42.61 42.15"><defs><style>.cls-1{fill:#e54433;}</style></defs><path class="cls-1" d="M12.41,41.89l-.32-.22A21,21,0,0,1,16,5.59,21.73,21.73,0,0,1,21.33,4c.8-.13,1.61-.2,2.42-.25a21.53,21.53,0,0,1,9.62,1.75A21.08,21.08,0,0,1,44.15,15.93,21,21,0,0,1,46,26.48,20.57,20.57,0,0,1,42.18,37c-.32.45-.67.87-1,1.3l-.11.1a1.89,1.89,0,0,1-.47-.51c-.31-.48-.63-1-.91-1.46a23.64,23.64,0,0,1-2.61-6.77,18.14,18.14,0,0,1-.4-3.36A2.54,2.54,0,0,1,37,24.91a9.84,9.84,0,0,1,1.22-1.71c.77-.87,1.56-1.71,2.33-2.58.46-.51.9-1.05,1.33-1.6a3.41,3.41,0,0,0,.67-1.41,2,2,0,0,0,0-.94,1.07,1.07,0,0,0-1.62-.62,2.1,2.1,0,0,0-.72.76l-.54.9A5.36,5.36,0,0,1,38.52,19a12.28,12.28,0,0,1-1.94,1.43,3.79,3.79,0,0,1-1.21.46c-.46.06-.71-.15-.67-.61a2.22,2.22,0,0,1,.2-.71c.24-.51.52-1,.78-1.5s.41-.75.6-1.13a2.27,2.27,0,0,0,.2-.57,1.14,1.14,0,0,0-1-1.39,2.47,2.47,0,0,0-1.56.25,3.25,3.25,0,0,0-.68.43,5.25,5.25,0,0,0-1.74,2.55,2,2,0,0,0,0,1.28,3,3,0,0,1,.15.42,8.26,8.26,0,0,1,.2.86,1.34,1.34,0,0,1-.41,1.13,3.76,3.76,0,0,1-1,.8,6.4,6.4,0,0,1-3.22.9A8.08,8.08,0,0,1,25,23.38l-.34-.12a2.4,2.4,0,0,1-1.51-1.55c-.29-.85-.58-1.7-.9-2.54-.2-.51-.45-1-.69-1.51a4.1,4.1,0,0,0-1.1-1.38c-.19-.16-.39-.31-.58-.48s-.41-.39-.6-.6A1.25,1.25,0,0,1,19,14a3.73,3.73,0,0,1,.49-1.05c.2-.3.41-.59.62-.89a4.81,4.81,0,0,0,.7-1.35,2.88,2.88,0,0,0,.1-.51,1.12,1.12,0,0,0-1.16-1.34,2.79,2.79,0,0,0-1.18.23,5.42,5.42,0,0,0-2.24,1.78,3.13,3.13,0,0,0-.48,2.64c.05.24.1.47.14.71a1.6,1.6,0,0,1-.3,1.23,3.79,3.79,0,0,1-.32.38,8.21,8.21,0,0,1-.58.6,4,4,0,0,0-1.35,2.68c-.1.86-.18,1.72-.21,2.57a12.45,12.45,0,0,1-.66,3.73,8.32,8.32,0,0,0-.41,3.17,9.88,9.88,0,0,0,.39,2.09,18.12,18.12,0,0,1,.67,4.07c0,.69.05,1.39.05,2.08a17,17,0,0,1-.47,3.82c-.06.28-.13.56-.2.83S12.47,41.72,12.41,41.89Z" transform="translate(-3.51 -3.7)"/><path class="cls-1" d="M21.78,36c0-1.47,0-2.94,0-4.41a11.9,11.9,0,0,1,.33-2.86,5.67,5.67,0,0,1,.38-1.07,2.11,2.11,0,0,1,2-1.31,6.33,6.33,0,0,1,3.41.91,4,4,0,0,1,1.81,2.62c.17.74.28,1.49.4,2.24.18,1.16.36,2.32.52,3.48s.3,2.14.43,3.21c.1.85.19,1.69.24,2.54s0,1.44,0,2.16a1.57,1.57,0,0,1-.67,1.25,3.49,3.49,0,0,1-1.57.64,21.37,21.37,0,0,1-3.38.41c-.41,0-.82.06-1.22,0a2.27,2.27,0,0,1-2-1.3,6.32,6.32,0,0,1-.47-1.7,28.51,28.51,0,0,1-.27-4.12c0-.91,0-1.82,0-2.72Z" transform="translate(-3.51 -3.7)"/><path class="cls-1" d="M38.15,40.58c-.08.25-.15.51-.25.76a.35.35,0,0,1-.17.17c-.67.46-1.34.92-2,1.36a.51.51,0,0,1-.82-.24,7.7,7.7,0,0,1-.61-2,16.21,16.21,0,0,1-.34-3.47,13.69,13.69,0,0,1,.16-1.57,1.75,1.75,0,0,1,.22-.59.44.44,0,0,1,.6-.24,1.31,1.31,0,0,1,.46.26,3.89,3.89,0,0,1,.61.67,13.19,13.19,0,0,1,2,4.34c0,.12,0,.25.08.38a.71.71,0,0,0,0,.14Z" transform="translate(-3.51 -3.7)"/><path class="cls-1" d="M16.05,39.53a19.46,19.46,0,0,1,.28-3.81,8.07,8.07,0,0,1,.29-1,1.08,1.08,0,0,1,.24-.36.22.22,0,0,1,.35,0,.84.84,0,0,1,.26.38,12.81,12.81,0,0,1,.43,1.37,24.79,24.79,0,0,1,.46,3.43,27.26,27.26,0,0,1,.1,3.38c0,.39-.1.77-.15,1.15a.86.86,0,0,1-.07.21c-.16.44-.21.46-.64.3l-.58-.2a.55.55,0,0,1-.35-.35,7.23,7.23,0,0,1-.4-1.5A18.7,18.7,0,0,1,16.05,39.53Z" transform="translate(-3.51 -3.7)"/></svg>