<svg width="53" height="37" viewBox="0 0 53 37" fill="none" xmlns="http://www.w3.org/2000/svg">
<rect x="0.5" y="0.5" width="52" height="36" rx="3.5" fill="white" stroke="#F3F3F3"/>
<path d="M31.3523 26.8031H21.8936V9.72363H31.3523V26.8031Z" fill="#FF5F00"/>
<path d="M22.4994 18.2624C22.4994 14.7977 24.114 11.7115 26.6282 9.72263C24.7896 8.26826 22.4692 7.4002 19.9474 7.4002C13.9772 7.4002 9.1377 12.2633 9.1377 18.2624C9.1377 24.2614 13.9772 29.1245 19.9474 29.1245C22.4692 29.1245 24.7896 28.2565 26.6282 26.8021C24.114 24.8132 22.4994 21.727 22.4994 18.2624" fill="#EB001B"/>
<path d="M44.1094 18.2624C44.1094 24.2614 39.2699 29.1245 33.2997 29.1245C30.7779 29.1245 28.4575 28.2565 26.6182 26.8021C29.1331 24.8132 30.7476 21.727 30.7476 18.2624C30.7476 14.7977 29.1331 11.7115 26.6182 9.72263C28.4575 8.26826 30.7779 7.4002 33.2997 7.4002C39.2699 7.4002 44.1094 12.2633 44.1094 18.2624" fill="#F79E1B"/>
</svg>
