<svg width="29" height="28" viewBox="0 0 29 28" fill="none" xmlns="http://www.w3.org/2000/svg">
<g clip-path="url(#clip0_692_174)">
<path d="M14.5 28C22.5081 28 29 21.732 29 14C29 6.26801 22.5081 0 14.5 0C6.49187 0 0 6.26801 0 14C0 21.732 6.49187 28 14.5 28Z" fill="url(#paint0_linear_692_174)"/>
<path fill-rule="evenodd" clip-rule="evenodd" d="M6.56299 13.8522C10.79 12.0741 13.6087 10.9018 15.0191 10.3354C19.0459 8.7183 19.8826 8.43738 20.428 8.42811C20.5479 8.42607 20.8161 8.45477 20.9899 8.59088C21.1365 8.7058 21.1769 8.86105 21.1962 8.97001C21.2155 9.07898 21.2396 9.3272 21.2205 9.52115C21.0023 11.7349 20.058 17.107 19.5777 19.5864C19.3744 20.6356 18.9742 20.9873 18.5867 21.0217C17.7447 21.0966 17.1053 20.4845 16.2897 19.9683C15.0135 19.1606 14.2926 18.6578 13.0538 17.8696C11.6222 16.9587 12.5503 16.4581 13.3661 15.6399C13.5796 15.4258 17.2897 12.1676 17.3615 11.872C17.3705 11.835 17.3788 11.6973 17.294 11.6245C17.2093 11.5517 17.0841 11.5766 16.9938 11.5964C16.8658 11.6245 14.8271 12.9255 10.8776 15.4996C10.299 15.8832 9.7748 16.0702 9.30518 16.0604C8.78745 16.0496 7.79156 15.7777 7.05121 15.5454C6.14315 15.2604 5.42144 15.1097 5.48428 14.6257C5.51702 14.3736 5.87659 14.1158 6.56299 13.8522Z" fill="white"/>
</g>
<defs>
<linearGradient id="paint0_linear_692_174" x1="14.5" y1="0" x2="14.5" y2="27.7923" gradientUnits="userSpaceOnUse">
<stop stop-color="#2AABEE"/>
<stop offset="1" stop-color="#229ED9"/>
</linearGradient>
<clipPath id="clip0_692_174">
<rect width="29" height="28" fill="white"/>
</clipPath>
</defs>
</svg>
