<svg width="53" height="37" viewBox="0 0 53 37" fill="none" xmlns="http://www.w3.org/2000/svg">
<rect x="0.5" y="0.5" width="52" height="36" rx="3.5" fill="white" stroke="#F3F3F3"/>
<path d="M23.5315 25.3759H20.0029L22.21 12.4253H25.7384L23.5315 25.3759Z" fill="#15195A"/>
<path d="M36.3231 12.7418C35.6271 12.4798 34.5232 12.1904 33.1582 12.1904C29.6736 12.1904 27.2198 13.9538 27.2048 16.475C27.1758 18.3351 28.9616 19.3682 30.2973 19.9884C31.6624 20.6222 32.1265 21.0358 32.1265 21.6007C32.1126 22.4683 31.0234 22.8683 30.0074 22.8683C28.5987 22.8683 27.8438 22.6621 26.6967 22.1794L26.2321 21.9725L25.7383 24.8796C26.5659 25.2374 28.0906 25.5549 29.6736 25.5688C33.3761 25.5688 35.7865 23.8327 35.8151 21.1461C35.8291 19.6718 34.8862 18.5422 32.8532 17.6191C31.619 17.0265 30.8632 16.627 30.8632 16.0207C30.8777 15.4695 31.5025 14.9049 32.8956 14.9049C34.0428 14.8773 34.8856 15.139 35.5241 15.4008L35.8432 15.5383L36.3231 12.7418V12.7418V12.7418Z" fill="#15195A"/>
<path fill-rule="evenodd" clip-rule="evenodd" d="M42.6393 12.4253H45.3686L48.2153 25.3758H44.9482C44.9482 25.3758 44.6285 23.8878 44.5272 23.4331H39.9967C39.8657 23.7773 39.2562 25.3758 39.2562 25.3758H35.5537L40.795 13.4998C41.1581 12.6593 41.7976 12.4253 42.6393 12.4253ZM42.4219 17.1645C42.4219 17.1645 41.3037 20.044 41.0131 20.788H43.946C43.8009 20.1405 43.1327 17.0405 43.1327 17.0405L42.8861 15.9246C42.7823 16.212 42.6321 16.607 42.5308 16.8735C42.4622 17.0541 42.416 17.1757 42.4219 17.1645Z" fill="#15195A"/>
<path fill-rule="evenodd" clip-rule="evenodd" d="M4.71433 12.4253H10.3915C11.161 12.4526 11.7854 12.6868 11.9886 13.5139L13.2223 19.4636C13.2225 19.4642 13.2226 19.4648 13.2228 19.4653L13.6004 21.2564L17.0561 12.4253H20.7873L15.241 25.3622H11.5096L8.36453 14.1093C7.27938 13.5072 6.04092 13.023 4.65625 12.687L4.71433 12.4253Z" fill="#15195A"/>
</svg>
