<svg id="Layer_1" data-name="Layer 1" xmlns="http://www.w3.org/2000/svg" viewBox="0 0 850.83 411.35"><defs><style>.cls-1{fill:#2c3b58;}.cls-2{fill:#e75825;}</style></defs><path class="cls-1" d="M821.94,427.67c0,16.62.08,33.24,0,49.85a77,77,0,0,1-5.9,30.34c-8,18.51-21.8,30.77-40.94,36.6-22,6.71-44.17,6.26-65.43-2.74C684.91,531.25,672.28,512,672,485q-.39-36.66-.42-73.32c0-12.61-.11-25.25.59-37.83,1.56-28.27,20.31-51.4,47.51-59.39A97.24,97.24,0,0,1,742.36,311c14-.71,27.62.85,40.57,6.32,24.7,10.43,37.76,29.29,38.68,56,.62,18.11.12,36.25.12,54.38Zm-24.23.76h0v-2.64c0-16.69.31-33.4-.09-50.08s-7.86-29.47-22.58-37.48c-11.44-6.23-24-7.44-36.77-6.36a45.18,45.18,0,0,0-23.94,8.9c-12.67,9.63-18.13,23.05-18.32,38.39-.39,33.23-.16,66.47-.14,99.71a56.07,56.07,0,0,0,.52,9.07c2.77,16.71,11.26,29.21,27.42,35.53,11.51,4.49,23.51,5.17,35.6,2.92,22.41-4.18,37-20.71,38.1-43.57C798.4,464.73,797.71,446.56,797.71,428.43Z" transform="translate(-302.03 -159.42)"/><path class="cls-2" d="M582.59,520.91c4.08-1.7,8.38-3,12.19-5.18,12.45-7.08,19.42-18.18,22.07-32a66.4,66.4,0,0,0,1-12.37c.06-31.24.11-62.48-.06-93.72,0-10-1.88-19.69-7.3-28.36-6.16-9.85-15.52-14.9-26.56-17.19-8.74-1.82-17.6-1.74-26.47-1.14a49.32,49.32,0,0,1-7.87-.27,4.21,4.21,0,0,1-4-3.92,102,102,0,0,1-.3-14.3c.24-3.56,2-5,5.57-5.52a112.44,112.44,0,0,1,25.8-.59,81.27,81.27,0,0,1,28.16,7c19.95,9.34,31.87,25,35.74,46.64a70.24,70.24,0,0,1,1,12.13c.13,25.56.14,51.13.16,76.7,0,8.94,0,17.89-.17,26.84C641,507,622.3,531.4,592.14,540.09c-2.14.62-4.33,1.06-6.5,1.6-3.07.78-3.9,1.91-3.9,5.09,0,4.06.1,8.12-.11,12.17a12.76,12.76,0,0,1-12.3,11.81,12.48,12.48,0,0,1-12.41-11.07,87.63,87.63,0,0,1-.38-11c.07-4.46-.85-5.36-5.29-6.22-6.4-1.23-12.94-2.26-19-4.46-22.7-8.23-35.89-24.67-40-48.33a84.39,84.39,0,0,1-1.09-14c-.12-17.9,0-35.8-.06-53.69,0-2.87-.29-5.74-.25-8.61.06-4.12,1.25-5.29,5.28-5.33,4.62,0,9.24,0,13.86,0,2.38,0,4,1.08,4.15,3.66.16,2.86.32,5.73.34,8.59.08,14.7-.06,29.41.26,44.1.18,8.42-.23,16.91,2.1,25.2,4.12,14.61,13.66,24,27.67,29.18,3.86,1.43,7.77,2.76,12,4.27,0-3-.08-5.64,0-8.24a27.68,27.68,0,0,1,.71-5.68c1.61-6.14,6.95-9.63,13.46-9a12,12,0,0,1,10.92,11.44c.17,2.85,0,5.71,0,8.57Z" transform="translate(-302.03 -159.42)"/><path class="cls-1" d="M515.15,279.17c0,18-.3,35.95.08,53.92a39.84,39.84,0,0,0,36,39.27c9.25,1,18.65.58,28,.71,6.68.09,7.84,1.12,7.91,7.75,0,3.67,0,7.35-.16,11-.15,3.35-1.53,5-4.67,5.4-17.25,1.94-34.38,1.82-50.76-4.77-18.94-7.62-32.52-20.5-38.25-40.66-2.16-7.62-2.31-15.45-2.45-23.26-.17-10,0-20,0-30,0-22.92-.1-45.84,0-68.77.07-12.47,2.75-24.4,9-35.33,9-15.81,22.57-25.94,40-30.64,22.18-6,44.2-5.26,65.43,3.94,20.17,8.73,31.73,24.65,34.86,46.17,1.52,10.37,1.49,21,1.68,31.52.25,15,.07,30,.06,45.06,0,4.51-1.13,5.68-5.64,5.73-4,0-8,0-12,0-4.68,0-6.35-1.67-6.35-6.38,0-14.3,0-28.61,0-42.91,0-6.54,0-13.11-.53-19.63-.91-12.31-4.26-23.72-13.52-32.62-6.85-6.57-15.26-10.09-24.4-11.95-13.88-2.83-27.47-1.9-40.1,4.81-15.61,8.3-23.87,21.59-24.14,39.33-.27,17.41-.06,34.83-.06,52.25Z" transform="translate(-302.03 -159.42)"/><path class="cls-1" d="M464.63,386.31c-7.56,0-14.83,0-22.1,0-1.67,0-1.68-1.13-2-2.16q-6.87-23.79-13.73-47.58c-1.72-6-3.64-11.9-5.11-17.94-.68-2.77-2-3.46-4.62-3.41-8.07.13-16.15.06-24.23,0l-42.45-.09c-4.89,0-5.74.66-7.09,5.32q-8.9,30.66-17.81,61.33c-1.24,4.27-2.14,4.91-6.62,4.89H302c.26-1.06.44-1.95.7-2.82q30.69-102.42,61.39-204.86c1.76-5.88,3.57-11.75,5.25-17.65a2.3,2.3,0,0,1,2.66-2c7.2.11,14.39.1,21.59.14,3.49,0,4.67.89,5.74,4.47q3.54,11.79,7,23.62,28.49,96.85,56.95,193.71C463.78,382.89,464.14,384.44,464.63,386.31Zm-49.42-90.06c-10.68-37.2-21.29-74.16-31.91-111.13l-1,0c-10.82,37-21.64,74-32.52,111.15Z" transform="translate(-302.03 -159.42)"/><path class="cls-1" d="M881.34,524.6h3.6q46.41,0,92.82-.05c2.43,0,3.16.6,3,3.05-.2,4.7-.06,9.42-.06,14.14v2.68H853.09c-.29-8.29.1-16.15,4.09-23.76q47.21-90.11,94.07-180.4c1-1.87,1.93-3.76,3.12-6.07H856.05V315.58H982.1c.06,7.78.72,15.48-3.23,23q-46.17,87.54-92,175.27C885.07,517.25,883.33,520.73,881.34,524.6Z" transform="translate(-302.03 -159.42)"/><path class="cls-1" d="M1006.72,315.3c7.42,0,14.66-.1,21.9.05,2.5,0,3.48,2.37,4.42,4.26,1.92,3.86,3.65,7.81,5.45,11.72q20.61,45,41.24,90.08c.33.72.71,1.42,1.31,2.62,1-2,1.91-3.58,2.66-5.26q21.81-49.11,43.59-98.23c2.21-5,3.34-5.65,8.75-5.59s11,0,16.82,0c-.46,1.1-.75,1.9-1.11,2.67Q1127.39,370.3,1103,423c-3,6.52-6,13.07-9,19.56a28.65,28.65,0,0,0-2.73,12.51q0,43,0,86.05v3.34h-23.79v-3q0-39.42,0-78.86a73.13,73.13,0,0,0-.19-10.05,37.53,37.53,0,0,0-2.64-10.34c-13.32-29.35-26.82-58.61-40.26-87.9Q1016,336,1007.64,317.67C1007.28,316.89,1007,316.07,1006.72,315.3Z" transform="translate(-302.03 -159.42)"/></svg>