<svg width="65" height="61" viewBox="0 0 65 61" fill="none" xmlns="http://www.w3.org/2000/svg">
<path d="M61.6695 23.8996C61.1518 23.1079 60.7233 22.2612 60.392 21.375C60.1256 20.4517 59.9524 19.5041 59.875 18.5463C59.838 16.2196 59.1648 13.9475 57.9283 11.9763C56.4302 10.176 54.4608 8.82791 52.2404 8.08294C51.3439 7.74069 50.4872 7.30215 49.6854 6.77502C48.9598 6.17486 48.2973 5.50221 47.7083 4.76753C46.2925 2.87581 44.3897 1.40401 42.2029 0.509193C40.0029 -0.0119409 37.7038 0.0615439 35.5416 0.722109C33.6011 1.17814 31.5813 1.17814 29.6408 0.722109C27.4122 0.0225358 25.0342 -0.0511182 22.7666 0.509193C20.5909 1.40872 18.699 2.88015 17.2916 4.76753C16.693 5.50374 16.0203 6.17644 15.2841 6.77502C14.4823 7.30215 13.6256 7.74069 12.7291 8.08294C10.4976 8.82289 8.51714 10.1713 7.01078 11.9763C5.79566 13.9537 5.1436 16.2254 5.12495 18.5463C5.04749 19.5041 4.87426 20.4517 4.60786 21.375C4.27254 22.2401 3.8442 23.0662 3.33036 23.8388C1.95374 25.8025 1.14351 28.1069 0.988281 30.5C1.15444 32.8722 1.96417 35.1541 3.33036 37.1004C3.8442 37.873 4.27254 38.6991 4.60786 39.5642C4.85773 40.5094 5.01061 41.4776 5.06411 42.4538C5.10105 44.7804 5.77428 47.0525 7.01078 49.0238C8.50885 50.8241 10.4783 52.1721 12.6987 52.9171C13.5952 53.2594 14.4519 53.6979 15.2537 54.225C15.9899 54.8236 16.6626 55.4963 17.2612 56.2325C18.6769 58.1242 20.5798 59.596 22.7666 60.4909C23.6236 60.756 24.5158 60.8893 25.4129 60.8863C26.8105 60.8426 28.1985 60.6385 29.5495 60.2779C31.49 59.8219 33.5099 59.8219 35.4504 60.2779C37.6505 60.9606 39.9946 61.0342 42.2333 60.4909C44.409 59.5913 46.3009 58.1199 47.7083 56.2325C48.3069 55.4963 48.9796 54.8236 49.7158 54.225C50.5176 53.6979 51.3743 53.2594 52.2708 52.9171C54.4912 52.1721 56.4606 50.8241 57.9587 49.0238C59.1845 47.0494 59.8472 44.7775 59.875 42.4538C59.9285 41.4776 60.0813 40.5094 60.3312 39.5642C60.6665 38.6991 61.0949 37.873 61.6087 37.1004C62.9965 35.1606 63.8275 32.8781 64.0116 30.5C63.8455 28.1279 63.0357 25.8459 61.6695 23.8996ZM24.8958 18.3334C25.7982 18.3334 26.6803 18.6009 27.4306 19.1023C28.1809 19.6036 28.7657 20.3162 29.111 21.1499C29.4563 21.9836 29.5467 22.9009 29.3706 23.786C29.1946 24.671 28.76 25.484 28.122 26.122C27.4839 26.7601 26.6709 27.1946 25.7859 27.3707C24.9008 27.5467 23.9835 27.4564 23.1498 27.1111C22.3161 26.7657 21.6035 26.1809 21.1022 25.4306C20.6009 24.6803 20.3333 23.7982 20.3333 22.8959C20.3333 21.6858 20.814 20.5253 21.6696 19.6697C22.5252 18.814 23.6857 18.3334 24.8958 18.3334ZM40.1041 42.6667C39.2017 42.6667 38.3196 42.3991 37.5693 41.8978C36.819 41.3964 36.2342 40.6839 35.8889 39.8502C35.5436 39.0165 35.4532 38.0991 35.6293 37.2141C35.8053 36.329 36.2399 35.5161 36.8779 34.878C37.516 34.2399 38.329 33.8054 39.214 33.6294C40.0991 33.4533 41.0164 33.5437 41.8501 33.889C42.6838 34.2343 43.3964 34.8191 43.8977 35.5694C44.399 36.3197 44.6666 37.2018 44.6666 38.1042C44.6666 39.3142 44.1859 40.4747 43.3303 41.3304C42.4747 42.186 41.3142 42.6667 40.1041 42.6667ZM43.7845 23.5346L25.5345 41.7846C25.2518 42.0697 24.9154 42.296 24.5447 42.4504C24.174 42.6048 23.7765 42.6843 23.3749 42.6843C22.9734 42.6843 22.5758 42.6048 22.2052 42.4504C21.8345 42.296 21.4981 42.0697 21.2154 41.7846C20.9303 41.5018 20.704 41.1654 20.5496 40.7948C20.3951 40.4241 20.3156 40.0266 20.3156 39.625C20.3156 39.2235 20.3951 38.8259 20.5496 38.4553C20.704 38.0846 20.9303 37.7482 21.2154 37.4654L39.4654 19.2154C40.0381 18.6427 40.8149 18.3209 41.6249 18.3209C42.4349 18.3209 43.2118 18.6427 43.7845 19.2154C44.3573 19.7882 44.6791 20.565 44.6791 21.375C44.6791 22.185 44.3573 22.9618 43.7845 23.5346Z" fill="#639E70"/>
</svg>
