<svg width="72" height="65" viewBox="0 0 72 65" fill="none" xmlns="http://www.w3.org/2000/svg">
<path d="M25.2 55.9722C25.2 57.7577 24.6722 59.5032 23.6832 60.9878C22.6943 62.4724 21.2887 63.6295 19.6441 64.3128C17.9996 64.9961 16.19 65.1749 14.4442 64.8265C12.6984 64.4782 11.0947 63.6184 9.83604 62.3558C8.57737 61.0933 7.7202 59.4847 7.37293 57.7334C7.02566 55.9822 7.20389 54.167 7.88508 52.5174C8.56627 50.8678 9.71983 49.4579 11.1999 48.4659C12.6799 47.4739 14.42 46.9444 16.2 46.9444C18.5869 46.9444 20.8761 47.8956 22.564 49.5886C24.2518 51.2817 25.2 53.5779 25.2 55.9722ZM55.8 46.9444C54.02 46.9444 52.2799 47.4739 50.7999 48.4659C49.3198 49.4579 48.1663 50.8678 47.4851 52.5174C46.8039 54.167 46.6257 55.9822 46.9729 57.7334C47.3202 59.4847 48.1774 61.0933 49.436 62.3558C50.6947 63.6184 52.2984 64.4782 54.0442 64.8265C55.79 65.1749 57.5996 64.9961 59.2442 64.3128C60.8887 63.6295 62.2943 62.4724 63.2832 60.9878C64.2722 59.5032 64.8 57.7577 64.8 55.9722C64.8 53.5779 63.8518 51.2817 62.164 49.5886C60.4761 47.8956 58.1869 46.9444 55.8 46.9444ZM36 0H3.6C2.64522 0 1.72955 0.380455 1.05442 1.05767C0.379284 1.73488 0 2.65338 0 3.61111V18.0556H39.6V3.61111C39.6 2.65338 39.2207 1.73488 38.5456 1.05767C37.8705 0.380455 36.9548 0 36 0ZM0 46.9444C0.0045377 47.4613 0.121207 47.971 0.341903 48.438C0.562599 48.9051 0.882029 49.3184 1.278 49.6492C2.54137 46.6311 4.68662 44.0677 7.4311 42.2967C10.1756 40.5258 13.3905 39.6304 16.6524 39.7285C19.9142 39.8267 23.0699 40.9137 25.7036 42.8464C28.3374 44.7792 30.3256 47.4669 31.4064 50.5555H39.6V25.2778H0V46.9444ZM46.8 10.8333V42.4739C48.7818 41.1403 51.0331 40.263 53.3927 39.9049C55.7523 39.5468 58.1616 39.7167 60.448 40.4025C62.7344 41.0883 64.8412 42.2729 66.6174 43.8716C68.3937 45.4702 69.7954 47.4432 70.722 49.6492C71.118 49.3184 71.4374 48.9051 71.6581 48.438C71.8788 47.971 71.9955 47.4613 72 46.9444V25.2778L61.2 10.8333H46.8Z" fill="#639E70"/>
</svg>
