<svg width="86" height="86" viewBox="0 0 86 86" fill="none" xmlns="http://www.w3.org/2000/svg">
<path d="M62.8128 27.8425C62.562 27.8067 62.3111 27.8067 62.0603 27.8425C56.5061 27.6634 52.0986 23.1125 52.0986 17.5225C52.0986 11.825 56.7211 7.16669 62.4545 7.16669C68.152 7.16669 72.8103 11.7892 72.8103 17.5225C72.7745 23.1125 68.367 27.6634 62.8128 27.8425Z" fill="#639E70"/>
<path d="M74.5034 52.6764C70.4901 55.3639 64.8643 56.3673 59.6684 55.6864C61.0301 52.7481 61.7468 49.4873 61.7826 46.0473C61.7826 42.4639 60.9943 39.0598 59.4893 36.0856C64.7926 35.3689 70.4184 36.3723 74.4676 39.0598C80.1293 42.7864 80.1293 48.9139 74.5034 52.6764Z" fill="#639E70"/>
<path d="M23.0769 27.8425C23.3277 27.8067 23.5786 27.8067 23.8294 27.8425C29.3836 27.6634 33.7911 23.1125 33.7911 17.5225C33.7911 11.7892 29.1686 7.16669 23.4352 7.16669C17.7377 7.16669 13.1152 11.7892 13.1152 17.5225C13.1152 23.1125 17.5227 27.6634 23.0769 27.8425Z" fill="#639E70"/>
<path d="M23.4744 46.048C23.4744 49.5238 24.2269 52.8205 25.5886 55.7946C20.5361 56.3321 15.2686 55.2571 11.3986 52.713C5.73693 48.9505 5.73693 42.823 11.3986 39.0605C15.2328 36.4805 20.6436 35.4413 25.7319 36.0146C24.2628 39.0246 23.4744 42.4288 23.4744 46.048Z" fill="#639E70"/>
<path d="M43.4332 56.8675C43.1465 56.8317 42.824 56.8317 42.5015 56.8675C35.9082 56.6525 30.6406 51.2417 30.6406 44.5767C30.6765 37.7683 36.159 32.25 43.0032 32.25C49.8115 32.25 55.3299 37.7683 55.3299 44.5767C55.294 51.2417 50.0624 56.6525 43.4332 56.8675Z" fill="#639E70"/>
<path d="M31.7866 64.2872C26.3758 67.9063 26.3758 73.8547 31.7866 77.438C37.95 81.5588 48.055 81.5588 54.2184 77.438C59.6292 73.8188 59.6292 67.8705 54.2184 64.2872C48.0909 60.1663 37.9859 60.1663 31.7866 64.2872Z" fill="#639E70"/>
</svg>
