<svg width="61" height="61" viewBox="0 0 61 61" fill="none" xmlns="http://www.w3.org/2000/svg">
<path d="M42.9845 8.85329C36.7895 2.7058 24.1623 2.01748 16.923 9.30425C15.7362 10.4673 15.9499 11.7964 16.7568 12.6035C17.3265 13.1968 18.2284 13.4579 19.083 13.1968C24.1386 11.6066 28.8144 11.4642 32.5409 14.2175L30.5472 19.5342C29.7876 21.5992 30.1911 23.047 31.544 24.4236L37.0269 29.9303C38.1187 31.0458 39.3293 31.3782 40.9195 30.9984L44.7648 30.1202L46.616 31.9716L46.3073 34.6774C46.1415 35.793 46.284 36.4813 47.2571 37.4544L49.1081 39.2347C50.129 40.2552 51.4342 40.3502 52.4074 39.377L60.0265 31.8054C60.9997 30.8322 60.8572 29.5268 59.8603 28.4824L58.033 26.6548C57.107 25.7054 56.3715 25.5155 55.303 25.6817L52.5736 26.014L50.6987 24.2101L51.8376 20.1276C52.194 18.7985 51.7428 17.5642 50.3186 16.1638L42.9845 8.85329ZM2.4206 48.8C0.118285 50.8412 -0.000338376 52.9774 2.13586 55.1374L5.9098 58.8876C8.02225 61 10.2296 60.8813 12.2472 58.6027L35.1044 32.9447L28.0786 25.9428L2.4206 48.8Z" fill="#639E70"/>
</svg>
