<svg width="61" height="66" viewBox="0 0 61 66" fill="none" xmlns="http://www.w3.org/2000/svg">
<path d="M33.8889 37.0591V64.8606C33.8889 65.5442 34.3407 66 35.0185 66C35.2444 66 35.4704 66 35.5833 65.8861C41.0056 62.8097 57.4981 53.3526 57.4981 53.3526C59.6444 52.0993 61 49.8205 61 47.3138V22.3608C61 21.6772 60.5481 21.2214 59.8704 21.2214C59.6444 21.2214 59.4185 21.2214 59.3056 21.3353L35.0185 35.1221C34.3407 35.464 33.8889 36.2615 33.8889 37.0591ZM31.6296 29.3112L56.0296 15.5244C56.5944 15.1826 56.7074 14.4989 56.3685 13.9292C56.2556 13.8153 56.1426 13.7013 56.0296 13.5874C50.6074 10.511 34.0019 0.940009 34.0019 0.940009C31.8556 -0.313336 29.1444 -0.313336 26.9981 0.940009C26.9981 0.940009 10.3926 10.3971 4.97037 13.5874C4.40556 13.9292 4.29259 14.6129 4.63148 15.1826C4.74444 15.2965 4.85741 15.4104 4.97037 15.5244L29.3704 29.3112C30.0481 29.653 30.9519 29.653 31.6296 29.3112ZM25.9815 35.1221L1.69444 21.3353C1.12963 20.9935 0.451852 21.2214 0.112963 21.7911C4.29236e-07 21.9051 0 22.1329 0 22.3608V47.1998C0 49.7065 1.35556 51.9853 3.50185 53.2387C3.50185 53.2387 19.9944 62.6957 25.4167 65.7721C25.9815 66.1139 26.6593 65.8861 26.9981 65.3164C27.1111 65.0885 27.1111 64.8606 27.1111 64.7467V37.0591C27.1111 36.2615 26.6593 35.464 25.9815 35.1221Z" fill="#639E70"/>
</svg>
