<svg width="81" height="81" viewBox="0 0 81 81" fill="none" xmlns="http://www.w3.org/2000/svg">
<path d="M53.6769 60.5263V73.024L59.6647 75.5162V57.2512C57.7838 58.5412 55.7777 59.6384 53.6769 60.5263ZM21.3349 57.2512V75.3916L27.3227 72.8994V60.5263C25.2218 59.6385 23.2158 58.5412 21.3349 57.2512ZM40.4997 63.1851C37.6722 63.1866 34.8556 62.8348 32.1154 62.1376V81L40.4997 77.5105L48.884 80.9998V62.1376C46.1438 62.8347 43.3272 63.1866 40.4997 63.1851ZM40.4997 0C24.401 0 11.3037 13.0973 11.3037 29.1962C11.3037 45.295 24.401 58.3922 40.4997 58.3922C56.5984 58.3922 69.6959 45.2949 69.6959 29.196C69.6959 13.0971 56.5986 0 40.4997 0ZM40.4997 52.2228C27.737 52.2228 17.3537 41.8394 17.3537 29.0767C17.3537 16.3139 27.737 5.93055 40.4997 5.93055C53.2624 5.93055 63.6457 16.3139 63.6457 29.0767C63.6457 41.8396 53.2626 52.2228 40.4997 52.2228ZM40.4997 10.7233C30.3798 10.7233 22.1465 18.9565 22.1465 29.0767C22.1465 39.197 30.3798 47.4298 40.4997 47.4298C50.6196 47.4298 58.853 39.1966 58.853 29.0766C58.853 18.9565 50.6198 10.7233 40.4997 10.7233ZM48.043 39.788L40.4997 35.8223L32.9566 39.788L34.3972 31.3887L28.2947 25.4403L36.7283 24.2147L40.4997 16.5725L44.2713 24.2147L52.7049 25.4403L46.6024 31.3887L48.043 39.788Z" fill="#639E70"/>
</svg>
